# xmcd CD database file
#
# Track frame offsets:
#	150
#	30710
#	59194
#	78264
#	112010
#	114821
#	136053
#	140777
#	152615
#	158632
#	205892
#	211727
#	235298
#
# Disc length: 3327 seconds
#
# Revision: 0
# Processed by: cddbd v1.5.1PL2 Copyright (c) Steve Scherf et al.
# Submitted via: CDex 1.51
#
DISCID=af0cfd0d
DTITLE=Pepi Taveira - Bs As inferno
DYEAR=2005
DGENRE=Jazz
TTITLE0=Bs As inferno
TTITLE1=Redencion
TTITLE2=La academia
TTITLE3=Ejasi
TTITLE4=Mariana and bells
TTITLE5=Teté
TTITLE6=Para Luís Agudo
TTITLE7=Fareta
TTITLE8=Drum Talking
TTITLE9=Sanatáfrica
TTITLE10=Feli
TTITLE11=Round Trip
TTITLE12=Tembleque
EXTD=YEAR: 2005
EXTT0=
EXTT1=
EXTT2=
EXTT3=
EXTT4=
EXTT5=
EXTT6=
EXTT7=
EXTT8=
EXTT9=
EXTT10=
EXTT11=
EXTT12=
PLAYORDER=
